<svg width="620" height="147" viewBox="0 0 680 190" fill="none" xmlns="http://www.w3.org/2000/svg" role="img" aria-labelledby="title">
  <title id="title">ardmere reverse logo</title>
  <rect width="680" height="190" fill="#174f36"/>
  <g transform="translate(0.000000,190.000000) scale(0.100000,-0.100000)" fill="#ffffff" stroke="none">
    <path d="M0 950 l0 -950 35 0 35 0 0 895 0 895 3350 0 3350 0 0 -895 0 -895
    15 0 15 0 0 950 0 950 -3400 0 -3400 0 0 -950z M1443 1048 c-50 -106 -123
    -265 -163 -353 -40 -88 -77 -166 -83 -172 l-9 -13 -95 0 -94 0 3 -22 3 -23 82
    -5 82 -5 -54 -118 c-30 -66 -55 -121 -55 -123 0 -3 36 -4 81 -2 l81 3 55 123
    55 122 219 0 219 0 0 9 c0 5 -3 16 -6 25 l-6 16 -200 0 -200 0 6 18 c4 9 57
    128 119 264 62 136 115 248 118 248 3 0 53 -102 110 -227 l104 -228 40 -5 c22
    -3 58 -3 81 0 l41 5 -109 235 c-60 129 -129 277 -153 328 l-44 92 -69 0 -69 0
    -90 -192z M3695 940 c-3 -5 -6 -60 -5 -122 1 -62 1 -116 1 -120 -1 -5 -10 1
    -22 13 -11 11 -36 27 -55 35 -18 8 -60 14 -92 14 l-59 0 -44 -23 c-24 -13 -58
    -42 -76 -65 l-31 -42 -12 -54 -11 -55 10 -58 c6 -31 22 -74 36 -95 14 -21 43
    -50 65 -64 l39 -26 65 -5 64 -6 56 26 c31 14 56 31 56 37 0 6 5 8 10 5 6 -3
    10 -17 10 -31 l0 -24 50 0 50 0 0 335 0 335 -49 0 c-28 0 -53 -4 -56 -10z
    m-77 -280 c18 -11 41 -34 52 -52 l20 -33 0 -61 0 -61 -22 -33 c-13 -18 -39
    -41 -58 -51 -19 -11 -48 -19 -65 -19 -17 0 -46 8 -65 19 l-35 18 -22 39 -23
    39 0 50 0 50 18 35 c9 19 32 45 51 57 l34 23 41 0 41 0 33 -20z M2611 759
    c-24 -5 -59 -19 -78 -31 -35 -24 -79 -100 -68 -118 3 -5 25 -10 49 -10 l42 0
    17 35 16 34 38 10 39 11 37 -11 37 -10 15 -29 c8 -16 15 -38 15 -48 l0 -19
    -31 -7 c-17 -3 -53 -6 -78 -6 -26 0 -70 -7 -98 -15 l-51 -15 -31 -35 -31 -36
    0 -45 c0 -25 7 -58 14 -73 8 -15 27 -36 41 -45 15 -10 50 -20 79 -23 l53 -6
    39 13 c21 7 54 23 72 37 l32 24 0 -14 c0 -8 8 -21 18 -30 l19 -17 41 0 42 0 0
    34 0 34 -14 5 -14 6 -3 143 -4 143 -21 35 -20 35 -40 21 c-21 12 -59 24 -84
    27 -25 3 -65 1 -89 -4z m159 -284 c0 -14 -6 -41 -14 -60 l-14 -34 -34 -17
    c-18 -9 -52 -17 -75 -17 l-43 0 -20 18 -20 18 0 33 0 34 25 16 c24 16 96 30
    163 33 l32 1 0 -25z M3154 746 c-17 -8 -40 -26 -52 -41 l-22 -28 0 37 0 36
    -50 0 -50 0 0 -235 0 -235 50 0 50 0 0 143 0 142 18 35 17 35 35 17 c19 10 54
    18 78 18 l42 0 0 45 0 45 -42 0 c-24 -1 -57 -7 -74 -14z M4065 749 c-11 -7
    -30 -21 -42 -32 l-23 -20 0 26 0 27 -50 0 -50 0 0 -235 0 -235 50 0 50 0 0
    155 0 156 15 29 c9 16 29 37 46 46 l31 16 34 -6 33 -7 21 -26 20 -26 0 -168 0
    -169 50 0 50 0 0 133 c0 72 4 149 9 170 5 22 19 49 31 62 12 13 37 26 56 29
    l33 7 29 -15 c15 -8 33 -26 40 -41 l12 -26 0 -159 0 -160 50 0 50 0 0 178 0
    179 -23 43 -22 43 -35 18 -35 19 -48 0 c-26 0 -62 -6 -80 -14 -18 -7 -42 -25
    -55 -39 l-24 -25 -33 36 -33 36 -68 3 -69 4 -20 -12z M4830 745 c-19 -9 -48
    -28 -63 -43 -16 -15 -38 -45 -50 -67 l-21 -40 0 -80 0 -80 22 -42 c12 -22 38
    -54 57 -71 20 -16 53 -34 74 -41 21 -6 60 -11 87 -11 l49 0 45 21 c24 11 53
    28 63 37 11 9 28 34 38 55 l19 37 -43 0 -44 0 -37 -35 -37 -35 -54 0 -53 0
    -33 27 c-29 25 -59 77 -59 103 l0 10 186 0 187 0 -7 58 c-3 31 -17 77 -29 102
    l-23 45 -43 30 -43 30 -76 3 -77 2 -35 -15z m172 -78 c10 -7 27 -30 38 -53 11
    -22 20 -43 20 -47 0 -4 -61 -7 -135 -7 l-135 0 15 38 c17 40 57 79 90 86 28 6
    84 -3 107 -17z M5415 744 c-16 -9 -40 -28 -52 -42 l-23 -27 0 38 0 37 -50 0
    -50 0 0 -235 0 -235 49 0 49 0 4 148 3 147 17 31 17 31 35 17 c19 9 52 16 75
    16 l41 0 0 45 0 45 -42 0 c-24 -1 -56 -8 -73 -16z M5695 741 c-22 -10 -53 -31
    -69 -47 -16 -16 -37 -47 -47 -69 l-19 -40 0 -71 0 -72 28 -53 28 -54 49 -30
    48 -30 81 0 81 0 47 27 c43 26 88 80 88 107 l0 11 -41 0 -42 0 -38 -35 -39
    -35 -48 0 -47 0 -33 20 -33 20 -15 35 c-8 19 -14 41 -14 50 l0 15 180 0 180 0
    0 44 c0 24 -7 63 -15 87 -9 24 -28 57 -43 73 -15 16 -45 37 -67 47 l-40 19
    -60 0 -60 0 -40 -19z m168 -73 c22 -11 57 -67 57 -90 l0 -18 -130 0 c-71 0
    -130 2 -130 5 0 3 6 20 14 38 7 18 22 40 34 50 11 10 33 22 48 27 31 9 77 4
    107 -12z M1852 501 c2 -5 32 -72 68 -150 l65 -141 82 0 82 0 -25 56 c-13 30
    -35 76 -48 102 -13 26 -27 57 -30 70 l-7 22 74 0 75 0 4 25 5 25 -174 0 -175
    0 4 -9z"/>
  </g>
</svg>
